<svg width="50" height="27" viewBox="0 0 520 281" fill="#009262" xmlns="http://www.w3.org/2000/svg">
<path d="M25.7333 0.933317C24.1333 1.99998 23.4667 11.6 22.5333 44.6666L22 61.8666L18.6667 62C6.8 62.5333 5.6 63.2 3.86667 70.1333C1.73333 79.2 -0.266668 134.533 1.06667 147.867C2.53333 161.733 4.26667 164.667 11.7333 166C17.4667 166.933 20 170.933 20 178.8C20 182.533 20.6667 184 22.5333 184.667C24.9333 185.333 25.0667 186.667 24.9333 202.4C24.5333 225.067 26.1333 240 28.9333 240C30.1333 240 35.2 238.8 40.1333 237.333C50.9333 234.133 50.4 235.867 47.2 211.333C46 202.267 45.3333 194 45.7333 192.933C46.4 191.2 47.4667 191.067 51.3333 192.133C54 192.933 57.0667 193.333 58.4 193.2C59.6 193.067 63.2 193.067 66.1333 193.2L71.7333 193.333L68.1333 201.6C63.3333 213.067 63.2 232.8 67.8667 244.267C71.3333 253.2 81.7333 265.2 90.1333 270.133C93.3333 272 96 274.133 96 274.8C96 275.467 89.2 276 81.0667 276C72.8 276 54.6667 276.4 40.6667 277.067L15.3333 278L39.3333 278.667C115.067 280.8 368 281.2 457.333 279.2C503.067 278.133 504.8 278 486.133 277.067C475.2 276.533 465.733 275.867 464.933 275.6C464.133 275.333 466.267 273.733 469.733 272C478.133 267.733 489.867 255.2 494.4 245.733C497.6 238.8 498 236.4 498 223.333C498 209.733 497.733 208.133 494 200.667C491.867 196.267 489.867 192.133 489.6 191.467C488.667 189.6 504.267 191.867 506.667 194C507.733 195.067 511.333 196.267 514.4 196.8L520 197.733V190.4V183.067L513.2 182.133C508 181.467 506.667 180.8 507.2 179.333C508.667 175.2 509.733 134.667 508.4 131.6C507.6 130 506.267 127.067 505.467 124.933C504.667 122.933 502.533 120.667 500.667 119.733C498.8 118.933 497.333 117.467 497.333 116.533C497.333 111.867 481.067 108.933 436 105.333C422.267 104.267 354.267 100 351.333 100C349.867 100 347.333 93.2 346.133 86C345.067 80.2666 344 77.8666 342.267 77.6C340.667 77.3333 340.267 77.7333 340.8 79.2C341.2 80.4 341.2 81.3333 340.8 81.3333C339.733 81.3333 317.333 35.0666 317.333 33.0666C317.333 30.8 311.333 23.7333 308 22C299.2 17.4666 226.933 5.59998 198 3.99998C186.267 3.33332 144.933 2.53332 106 1.99998C67.0667 1.59998 33.6 0.933317 31.3333 0.533317C29.2 0.26665 26.6667 0.399983 25.7333 0.933317ZM219.467 215.733C260.8 219.2 261.067 219.2 271.733 216.667C280.667 214.667 282.933 214.533 284.667 216C286.267 217.333 294.8 217.467 326.533 216.8L366.267 215.733L367.067 218.933C367.6 220.667 368 227.067 368 233.2V244.533L372 240.667C375.733 237.067 376 236.267 376 226.4V216H381.867H387.6L388.4 225.067C390 244 398.8 259.6 413.2 268.8C417.6 271.733 421.2 274.267 421.2 274.667C421.333 275.333 152.8 274.933 145.467 274.267C142.8 274 143.467 273.2 150.133 268.667C166 257.733 173.733 242.933 173.867 222.933C173.867 212.533 174.267 210.667 176 211.467C177.067 211.867 196.667 213.733 219.467 215.733Z" fill="#009262"/>
</svg>
