<svg width="23" height="30" viewBox="0 0 23 30" fill="none" xmlns="http://www.w3.org/2000/svg">
<path d="M10.297 0.151527C7.81215 0.454557 5.33942 1.80001 3.78791 3.70304C3.01215 4.64849 2.16366 6.34547 1.83639 7.60608C1.48488 8.96365 1.48488 11.1212 1.83639 12.4546C2.17578 13.7516 2.55155 14.503 4.11518 17.1334C6.44246 21.0243 7.81215 23.6666 9.92124 28.3212C10.2485 29.0606 10.6364 29.7152 10.7818 29.8121C11.1334 30.0425 11.8364 30.0425 12.1879 29.8121C12.3576 29.703 12.9516 28.5516 13.8364 26.6606C15.3758 23.303 16.5273 21.1212 18.697 17.4243C20.4546 14.4182 20.7939 13.7516 21.1212 12.4546C21.4243 11.303 21.4848 9.21819 21.2546 8.09092C20.7212 5.59395 19.097 3.14547 17.0607 1.80001C15.0848 0.4788 12.6 -0.115139 10.297 0.151527ZM13.0848 6.60001C13.8243 6.95153 14.5637 7.6788 14.9394 8.45456C15.3879 9.36365 15.3637 10.7455 14.903 11.6909C14.2728 12.9757 12.8909 13.8485 11.4848 13.8485C10.0788 13.8485 8.697 12.9757 8.06669 11.6909C7.60609 10.7576 7.59396 9.37574 8.03033 8.45456C8.53942 7.42426 9.52124 6.61213 10.6364 6.32122C11.2303 6.16365 12.4425 6.29699 13.0848 6.60001Z" fill="#33CC99"/>
<path d="M10.6848 9.23027C10.2121 9.70299 10.1879 10.4061 10.6485 10.8545C11 11.2061 11.3273 11.2909 11.8485 11.1575C13.0848 10.8303 12.7697 8.87878 11.4848 8.87878C11.1575 8.87878 10.9515 8.97575 10.6848 9.23027Z" fill="#33CC99"/>
</svg>
