<svg width="219" height="330" viewBox="0 0 219 330" fill="#009262" xmlns="http://www.w3.org/2000/svg">
<path d="M96.2667 1.66666C68.9333 4.99999 41.7333 19.8 24.6667 40.7333C16.1333 51.1333 6.79999 69.8 3.19999 83.6667C-0.666679 98.6 -0.666679 122.333 3.19999 137C6.93332 151.267 11.0667 159.533 28.2667 188.467C53.8667 231.267 68.9333 260.333 92.1333 311.533C95.7333 319.667 100 326.867 101.6 327.933C105.467 330.467 113.2 330.467 117.067 327.933C118.933 326.733 125.467 314.067 135.2 293.267C152.133 256.333 164.8 232.333 188.667 191.667C208 158.6 211.733 151.267 215.333 137C218.667 124.333 219.333 101.4 216.8 89C210.933 61.5333 193.067 34.6 170.667 19.8C148.933 5.26666 121.6 -1.26667 96.2667 1.66666ZM126.933 72.6C135.067 76.4667 143.2 84.4667 147.333 93C152.267 103 152 118.2 146.933 128.6C140 142.733 124.8 152.333 109.333 152.333C93.8667 152.333 78.6667 142.733 71.7333 128.6C66.6667 118.333 66.5333 103.133 71.3333 93C76.9333 81.6667 87.7333 72.7333 100 69.5333C106.533 67.8 119.867 69.2667 126.933 72.6Z" fill="#009262"/>
<path d="M100.533 101.533C95.3333 106.733 95.0666 114.467 100.133 119.4C104 123.267 107.6 124.2 113.333 122.733C126.933 119.133 123.467 97.6667 109.333 97.6667C105.733 97.6667 103.467 98.7333 100.533 101.533Z" fill="#009262"/>
</svg>
